<svg width="1441" height="900" viewBox="0 0 1441 900" fill="none" xmlns="http://www.w3.org/2000/svg">
<rect width="1440" height="900" transform="translate(0.814453)" fill="white"/>
<g filter="url(#filter0_d_1_62)">
<path d="M38.1957 40.31C36.2979 40.31 34.7947 40.0564 33.6861 39.549C32.5774 39.0229 31.7789 38.1961 31.2903 37.0687C30.8018 35.9413 30.5575 34.4193 30.5575 32.5027V27.7957C30.5575 25.8603 30.8018 24.3289 31.2903 23.2015C31.7789 22.0741 32.5774 21.2567 33.6861 20.7494C34.7947 20.2233 36.2979 19.9602 38.1957 19.9602C39.7177 19.9602 41.2022 20.1105 42.649 20.4112V23.4834C41.5404 23.2767 40.3566 23.1733 39.0977 23.1733C37.7823 23.1733 36.7865 23.3142 36.11 23.5961C35.4336 23.878 34.9544 24.3665 34.6726 25.0617C34.3907 25.757 34.2498 26.7717 34.2498 28.1058V32.1926C34.2498 33.508 34.3907 34.5132 34.6726 35.2085C34.9544 35.9037 35.4336 36.3923 36.11 36.6741C36.7865 36.956 37.7823 37.0969 39.0977 37.0969C40.3566 37.0969 41.5404 36.9936 42.649 36.7869V39.8591C41.2022 40.1597 39.7177 40.31 38.1957 40.31ZM50.2203 23.427H45.1751V20.2702H58.9578V23.427H53.9126V40H50.2203V23.427ZM62.8952 20.2702H66.5875V36.8432H73.972V40H62.8952V20.2702Z" fill="white"/>
</g>
<g filter="url(#filter1_d_1_62)">
<rect x="0.814453" width="1440" height="905" fill="url(#paint0_linear_1_62)"/>
</g>
<rect x="856.309" y="146.586" width="403.021" height="549.469" transform="rotate(24.9137 856.309 146.586)" fill="white" fill-opacity="0.1"/>
<rect x="1080.77" y="276.209" width="256.226" height="349.332" transform="rotate(15 1080.77 276.209)" fill="white" fill-opacity="0.1"/>
<rect x="335.672" y="298.664" width="256.226" height="349.332" transform="rotate(6.14088 335.672 298.664)" fill="white" fill-opacity="0.1"/>
<rect x="1209.07" y="259.065" width="142.623" height="194.448" transform="rotate(-19.9785 1209.07 259.065)" fill="white" fill-opacity="0.1"/>
<rect width="250.645" height="341.723" transform="matrix(-0.965926 0.258819 0.258819 0.965926 412.502 111.733)" fill="white" fill-opacity="0.1"/>
<rect width="139.516" height="190.212" transform="matrix(-0.832473 -0.554066 -0.554066 0.832473 261.014 332.061)" fill="white" fill-opacity="0.1"/>
<defs>
<filter id="filter0_d_1_62" x="29.618" y="19.4904" width="45.2936" height="22.2289" filterUnits="userSpaceOnUse" color-interpolation-filters="sRGB">
<feFlood flood-opacity="0" result="BackgroundImageFix"/>
<feColorMatrix in="SourceAlpha" type="matrix" values="0 0 0 0 0 0 0 0 0 0 0 0 0 0 0 0 0 0 127 0" result="hardAlpha"/>
<feOffset dy="0.469757"/>
<feGaussianBlur stdDeviation="0.469757"/>
<feComposite in2="hardAlpha" operator="out"/>
<feColorMatrix type="matrix" values="0 0 0 0 0 0 0 0 0 0 0 0 0 0 0 0 0 0 0.25 0"/>
<feBlend mode="normal" in2="BackgroundImageFix" result="effect1_dropShadow_1_62"/>
<feBlend mode="normal" in="SourceGraphic" in2="effect1_dropShadow_1_62" result="shape"/>
</filter>
<filter id="filter1_d_1_62" x="-2.99772" y="-1.90608" width="1447.62" height="912.624" filterUnits="userSpaceOnUse" color-interpolation-filters="sRGB">
<feFlood flood-opacity="0" result="BackgroundImageFix"/>
<feColorMatrix in="SourceAlpha" type="matrix" values="0 0 0 0 0 0 0 0 0 0 0 0 0 0 0 0 0 0 127 0" result="hardAlpha"/>
<feOffset dy="1.90608"/>
<feGaussianBlur stdDeviation="1.90608"/>
<feColorMatrix type="matrix" values="0 0 0 0 0.380392 0 0 0 0 0.380392 0 0 0 0 0.380392 0 0 0 0.18 0"/>
<feBlend mode="multiply" in2="BackgroundImageFix" result="effect1_dropShadow_1_62"/>
<feBlend mode="normal" in="SourceGraphic" in2="effect1_dropShadow_1_62" result="shape"/>
</filter>
<linearGradient id="paint0_linear_1_62" x1="720.814" y1="0" x2="720.814" y2="905" gradientUnits="userSpaceOnUse">
<stop stop-color="#5ABCFF"/>
<stop offset="1" stop-color="#0063A7"/>
</linearGradient>
</defs>
</svg>
